<svg width="24" height="24" viewBox="0 0 24 24" fill="none" xmlns="http://www.w3.org/2000/svg">
<path d="M13 18C13 18.552 12.552 19 12 19C11.448 19 11 18.552 11 18C11 17.448 11.448 17 12 17C12.552 17 13 17.448 13 18ZM12 15C12.276 15 12.5 14.776 12.5 14.5V5.5C12.5 5.224 12.276 5 12 5C11.724 5 11.5 5.224 11.5 5.5V14.5C11.5 14.776 11.724 15 12 15ZM24 12C24 18.617 18.617 24 12 24C5.383 24 0 18.617 0 12C0 5.383 5.383 0 12 0C18.617 0 24 5.383 24 12ZM23 12C23 5.935 18.065 1 12 1C5.935 1 1 5.935 1 12C1 18.065 5.935 23 12 23C18.065 23 23 18.065 23 12Z" fill="#155DFC"/>
</svg>
