<svg width="154" height="62" viewBox="0 0 154 62" fill="none" xmlns="http://www.w3.org/2000/svg">
<path d="M76.8193 1.86719C77.2838 2.02412 77.4989 2.39114 77.8058 2.76719C77.8702 2.84344 77.8702 2.84344 77.9359 2.92124C79.046 4.23615 80.0136 5.71911 80.5681 7.36719C80.5992 7.45368 80.6304 7.54018 80.6625 7.6293C81.2186 9.44388 80.9024 11.407 80.0748 13.0672C80.0396 13.1408 80.0044 13.2144 79.9681 13.2902C79.6006 14.0128 79.0927 14.634 78.595 15.2672C78.5246 15.3576 78.4541 15.4479 78.3815 15.541C77.9801 16.0423 77.5028 16.4539 77.0166 16.8672C75.2538 16.0477 73.9155 13.6311 73.2559 11.8723C72.6042 9.80841 73.027 7.75446 73.9584 5.86719C74.5697 4.67646 75.3815 3.64482 76.2231 2.61445C76.4245 2.36743 76.6224 2.11788 76.8193 1.86719ZM76.637 5.14023C75.6284 6.27444 74.8675 7.47933 74.2543 8.86719C74.2164 8.95085 74.1786 9.03451 74.1395 9.1207C73.77 10.1131 73.7754 11.6353 74.1461 12.6262C74.1997 12.7455 74.1997 12.7455 74.2543 12.8672C74.3013 12.9766 74.3482 13.0861 74.3965 13.1988C74.9768 14.4638 75.8367 15.4086 76.8193 16.3672C77.2175 16.2053 77.4909 15.921 77.7873 15.6172C77.8398 15.5634 77.8923 15.5097 77.9463 15.4543C79.2593 14.0824 80.0196 12.4431 80.0043 10.5215C79.8698 8.82731 78.9811 7.39539 77.9908 6.07969C77.9506 6.02616 77.9104 5.97263 77.869 5.91748C77.6067 5.5754 77.3325 5.25934 77.0166 4.96719C76.8017 4.9444 76.8017 4.9444 76.637 5.14023Z" fill="#0959A6"/>
<path d="M56.4304 24.9669L53.4981 18.6299C53.4953 18.624 53.4997 18.6172 53.5062 18.6172C53.5073 18.6172 53.5083 18.6174 53.5093 18.6177L58.7125 20.5098C58.9047 20.5797 59.0709 20.7069 59.1886 20.8742L61.8058 24.5942C61.8442 24.6487 61.8878 24.6992 61.9362 24.745L65.5702 28.1852C65.615 28.2276 65.6636 28.2657 65.7153 28.2991L69.4754 30.7265C69.5664 30.7853 69.6664 30.8289 69.7714 30.8556L72.5818 31.5701L76.3743 32.0563C76.4622 32.0676 76.5513 32.0671 76.6391 32.0549L80.1299 31.5701L82.9982 30.8153L84.5902 30.1881C84.6358 30.1701 84.6801 30.1488 84.7226 30.1243L86.3193 29.205L89.0399 27.2131C89.1046 27.1658 89.1633 27.1108 89.2149 27.0494L90.194 25.8838L91.3011 24.6258L93.8301 20.9179C93.9625 20.7236 94.1592 20.5823 94.3855 20.5187L100.473 18.807L100.479 18.795C100.483 18.7887 100.492 18.7928 100.49 18.7995C100.489 18.8013 100.488 18.8027 100.486 18.8033L100.473 18.807L97.1761 24.9578C97.151 25.0046 97.1201 25.0482 97.0841 25.0874L94.3918 28.0201C94.3443 28.0718 94.2914 28.1184 94.2341 28.1591L90.8482 30.5636L87.2195 32.4761C87.1563 32.5094 87.0897 32.5358 87.0209 32.5549L82.6906 33.7578C82.6274 33.7753 82.5627 33.7866 82.4972 33.7915L77.8654 34.1364H74.9468L72.5212 33.9909C72.4611 33.9873 72.4014 33.9782 72.3429 33.9639L67.2078 32.7043C67.1341 32.6863 67.0626 32.6598 66.9948 32.6255L62.6869 30.4474C62.6412 30.4243 62.5974 30.3977 62.5557 30.3679L59.3232 28.052C59.2724 28.0156 59.2251 27.9745 59.1819 27.9293L56.6143 25.2371C56.5386 25.1577 56.4765 25.0664 56.4304 24.9669Z" fill="#F3A532"/>
<path d="M79.6685 20.1007L79.0986 21.5661C79.0421 21.7114 78.953 21.8417 78.8381 21.947L78.6504 22.1191C78.5008 22.2562 78.2897 22.3038 78.0958 22.2441C77.8871 22.1799 77.7331 22.0024 77.6991 21.7867L77.6362 21.3883C77.6147 21.2525 77.6164 21.114 77.6412 20.9787L77.9556 19.2638C78.0897 18.5322 78.2949 17.8155 78.5682 17.1237L79.077 15.8359C79.5355 14.6752 80.1385 13.5768 80.8716 12.5667L80.9415 12.4705C81.6653 11.4732 82.5179 10.5761 83.4771 9.80252C84.5871 8.90741 85.8275 8.18754 87.1554 7.66794L87.3271 7.60074C88.9511 6.96527 90.6726 6.61468 92.4157 6.5644L93.7085 6.5271C94.5753 6.5021 95.4416 6.59439 96.2837 6.80147L97.8925 7.19708C98.0192 7.22823 98.1388 7.28327 98.2448 7.35926C98.947 7.86255 98.7495 8.95561 97.9156 9.18132L97.4146 9.31688C97.1942 9.37654 96.9939 9.49449 96.8348 9.65832L95.2996 11.2394C94.253 12.3172 93.4832 13.6324 93.0559 15.0726L92.7243 16.1901C92.4738 17.0344 92.1444 17.8532 91.7405 18.6358L91.6472 18.8166C90.5188 21.0029 88.9071 22.9034 86.9346 24.3739L86.1386 24.9673C84.9831 25.8286 83.7143 26.5265 82.3682 27.0412L82.1979 27.1063C80.2637 27.8459 78.1959 28.1717 76.128 28.0629C74.4077 27.9724 72.7164 27.5825 71.13 26.9108L70.4909 26.6402C68.8035 25.9257 67.2469 24.9352 65.8849 23.7094C64.2536 22.2412 62.9314 20.4624 61.9958 18.4771L61.3502 17.1071L60.4073 14.2784C60.0993 13.3546 59.6193 12.4974 58.9926 11.7521L58.358 10.9974C58.1738 10.7783 57.9511 10.5947 57.701 10.4555L55.1509 9.0361C54.4785 8.66182 54.5302 7.67804 55.2381 7.37624C55.2871 7.35537 55.3377 7.33876 55.3896 7.3266L57.0121 6.94581C59.1427 6.44576 61.3542 6.39526 63.5054 6.79753L63.8358 6.8593C65.5518 7.18018 67.1924 7.81979 68.6728 8.74501C69.8564 9.48477 70.9225 10.3977 71.8355 11.4534L72.4393 12.1516C73.2624 13.1032 73.9634 14.1539 74.5261 15.2793C75.1326 16.4923 75.5731 17.7814 75.8357 19.112L76.1948 20.9315L76.245 21.4585C76.2749 21.7732 76.0957 22.0704 75.8034 22.1908L75.7874 22.1974C75.5709 22.2865 75.324 22.2592 75.1322 22.125C75.0056 22.0364 74.9126 21.9077 74.8682 21.7597L74.7858 21.485L74.2873 20.3684C73.7852 19.2437 73.0813 18.2205 72.2103 17.3496L71.0837 16.2229C70.9696 16.1088 70.8358 16.0163 70.6887 15.9498C69.8023 15.5488 68.7976 16.197 68.7976 17.1699V17.9077C68.7976 18.0776 68.8215 18.2467 68.8685 18.4099L69.1549 19.405C69.5487 20.7728 70.256 22.03 71.2205 23.0766L71.2863 23.1479C71.8386 23.7473 72.4714 24.2672 73.1666 24.6928L73.5217 24.9102C74.2241 25.3403 75.0006 25.6353 75.8113 25.78L76.1682 25.8438C76.9791 25.9886 77.813 25.9359 78.5992 25.6902C78.8744 25.6042 79.1419 25.4951 79.3987 25.3642L79.9213 25.0978C81.0173 24.539 82.0022 23.785 82.8275 22.8728L83.0704 22.6044C83.3503 22.295 83.5994 21.959 83.814 21.6012C84.1997 20.9584 84.4697 20.253 84.6118 19.5169L84.9202 17.9186C84.9404 17.8139 84.9506 17.7076 84.9506 17.6011V16.5356C84.9506 15.8491 84.2531 15.3829 83.6187 15.6454C83.5342 15.6804 83.4551 15.7272 83.3837 15.7845L82.0419 16.8623C80.9805 17.715 80.162 18.8318 79.6685 20.1007Z" fill="#F3A532"/>
<path d="M14.649 54.1328H12.939L7.79398 46.3478V54.1328H6.08398V43.6928H7.79398L12.939 51.4628V43.6928H14.649V54.1328ZM17.7645 44.7728C17.4545 44.7728 17.1945 44.6678 16.9845 44.4578C16.7745 44.2478 16.6695 43.9878 16.6695 43.6778C16.6695 43.3678 16.7745 43.1078 16.9845 42.8978C17.1945 42.6878 17.4545 42.5828 17.7645 42.5828C18.0645 42.5828 18.3195 42.6878 18.5295 42.8978C18.7395 43.1078 18.8445 43.3678 18.8445 43.6778C18.8445 43.9878 18.7395 44.2478 18.5295 44.4578C18.3195 44.6678 18.0645 44.7728 17.7645 44.7728ZM18.6045 45.8678V54.1328H16.8945V45.8678H18.6045ZM22.5596 47.0678C22.8096 46.6478 23.1396 46.3228 23.5496 46.0928C23.9696 45.8528 24.4646 45.7328 25.0346 45.7328V47.5028H24.5996C23.9296 47.5028 23.4196 47.6728 23.0696 48.0128C22.7296 48.3528 22.5596 48.9428 22.5596 49.7828V54.1328H20.8496V45.8678H22.5596V47.0678ZM36.6114 45.7328C37.2614 45.7328 37.8414 45.8678 38.3514 46.1378C38.8714 46.4078 39.2764 46.8078 39.5664 47.3378C39.8664 47.8678 40.0164 48.5078 40.0164 49.2578V54.1328H38.3214V49.5128C38.3214 48.7728 38.1364 48.2078 37.7664 47.8178C37.3964 47.4178 36.8914 47.2178 36.2514 47.2178C35.6114 47.2178 35.1014 47.4178 34.7214 47.8178C34.3514 48.2078 34.1664 48.7728 34.1664 49.5128V54.1328H32.4714V49.5128C32.4714 48.7728 32.2864 48.2078 31.9164 47.8178C31.5464 47.4178 31.0414 47.2178 30.4014 47.2178C29.7614 47.2178 29.2514 47.4178 28.8714 47.8178C28.5014 48.2078 28.3164 48.7728 28.3164 49.5128V54.1328H26.6064V45.8678H28.3164V46.8128C28.5964 46.4728 28.9514 46.2078 29.3814 46.0178C29.8114 45.8278 30.2714 45.7328 30.7614 45.7328C31.4214 45.7328 32.0114 45.8728 32.5314 46.1528C33.0514 46.4328 33.4514 46.8378 33.7314 47.3678C33.9814 46.8678 34.3714 46.4728 34.9014 46.1828C35.4314 45.8828 36.0014 45.7328 36.6114 45.7328ZM41.6224 49.9628C41.6224 49.1328 41.7924 48.3978 42.1324 47.7578C42.4824 47.1178 42.9524 46.6228 43.5424 46.2728C44.1424 45.9128 44.8024 45.7328 45.5224 45.7328C46.1724 45.7328 46.7374 45.8628 47.2174 46.1228C47.7074 46.3728 48.0974 46.6878 48.3874 47.0678V45.8678H50.1124V54.1328H48.3874V52.9028C48.0974 53.2928 47.7024 53.6178 47.2024 53.8778C46.7024 54.1378 46.1324 54.2678 45.4924 54.2678C44.7824 54.2678 44.1324 54.0878 43.5424 53.7278C42.9524 53.3578 42.4824 52.8478 42.1324 52.1978C41.7924 51.5378 41.6224 50.7928 41.6224 49.9628ZM48.3874 49.9928C48.3874 49.4228 48.2674 48.9278 48.0274 48.5078C47.7974 48.0878 47.4924 47.7678 47.1124 47.5478C46.7324 47.3278 46.3224 47.2178 45.8824 47.2178C45.4424 47.2178 45.0324 47.3278 44.6524 47.5478C44.2724 47.7578 43.9624 48.0728 43.7224 48.4928C43.4924 48.9028 43.3774 49.3928 43.3774 49.9628C43.3774 50.5328 43.4924 51.0328 43.7224 51.4628C43.9624 51.8928 44.2724 52.2228 44.6524 52.4528C45.0424 52.6728 45.4524 52.7828 45.8824 52.7828C46.3224 52.7828 46.7324 52.6728 47.1124 52.4528C47.4924 52.2328 47.7974 51.9128 48.0274 51.4928C48.2674 51.0628 48.3874 50.5628 48.3874 49.9928ZM54.0684 43.0328V54.1328H52.3584V43.0328H54.0684ZM68.535 43.7078V54.1328H66.825V49.5728H61.92V54.1328H60.21V43.7078H61.92V48.1778H66.825V43.7078H68.535ZM78.3611 49.7978C78.3611 50.1078 78.3411 50.3878 78.3011 50.6378H71.9861C72.0361 51.2978 72.2811 51.8278 72.7211 52.2278C73.1611 52.6278 73.7011 52.8278 74.3411 52.8278C75.2611 52.8278 75.9111 52.4428 76.2911 51.6728H78.1361C77.8861 52.4328 77.4311 53.0578 76.7711 53.5478C76.1211 54.0278 75.3111 54.2678 74.3411 54.2678C73.5511 54.2678 72.8411 54.0928 72.2111 53.7428C71.5911 53.3828 71.1011 52.8828 70.7411 52.2428C70.3911 51.5928 70.2161 50.8428 70.2161 49.9928C70.2161 49.1428 70.3861 48.3978 70.7261 47.7578C71.0761 47.1078 71.5611 46.6078 72.1811 46.2578C72.8111 45.9078 73.5311 45.7328 74.3411 45.7328C75.1211 45.7328 75.8161 45.9028 76.4261 46.2428C77.0361 46.5828 77.5111 47.0628 77.8511 47.6828C78.1911 48.2928 78.3611 48.9978 78.3611 49.7978ZM76.5761 49.2578C76.5661 48.6278 76.3411 48.1228 75.9011 47.7428C75.4611 47.3628 74.9161 47.1728 74.2661 47.1728C73.6761 47.1728 73.1711 47.3628 72.7511 47.7428C72.3311 48.1128 72.0811 48.6178 72.0011 49.2578H76.5761ZM79.4739 49.9628C79.4739 49.1328 79.6439 48.3978 79.9839 47.7578C80.3339 47.1178 80.8039 46.6228 81.3939 46.2728C81.9939 45.9128 82.6539 45.7328 83.3739 45.7328C84.0239 45.7328 84.5889 45.8628 85.0689 46.1228C85.5589 46.3728 85.9489 46.6878 86.2389 47.0678V45.8678H87.9639V54.1328H86.2389V52.9028C85.9489 53.2928 85.5539 53.6178 85.0539 53.8778C84.5539 54.1378 83.9839 54.2678 83.3439 54.2678C82.6339 54.2678 81.9839 54.0878 81.3939 53.7278C80.8039 53.3578 80.3339 52.8478 79.9839 52.1978C79.6439 51.5378 79.4739 50.7928 79.4739 49.9628ZM86.2389 49.9928C86.2389 49.4228 86.1189 48.9278 85.8789 48.5078C85.6489 48.0878 85.3439 47.7678 84.9639 47.5478C84.5839 47.3278 84.1739 47.2178 83.7339 47.2178C83.2939 47.2178 82.8839 47.3278 82.5039 47.5478C82.1239 47.7578 81.8139 48.0728 81.5739 48.4928C81.3439 48.9028 81.2289 49.3928 81.2289 49.9628C81.2289 50.5328 81.3439 51.0328 81.5739 51.4628C81.8139 51.8928 82.1239 52.2228 82.5039 52.4528C82.8939 52.6728 83.3039 52.7828 83.7339 52.7828C84.1739 52.7828 84.5839 52.6728 84.9639 52.4528C85.3439 52.2328 85.6489 51.9128 85.8789 51.4928C86.1189 51.0628 86.2389 50.5628 86.2389 49.9928ZM91.92 43.0328V54.1328H90.21V43.0328H91.92ZM96.16 47.2628V51.8378C96.16 52.1478 96.23 52.3728 96.37 52.5128C96.52 52.6428 96.77 52.7078 97.12 52.7078H98.17V54.1328H96.82C96.05 54.1328 95.46 53.9528 95.05 53.5928C94.64 53.2328 94.435 52.6478 94.435 51.8378V47.2628H93.46V45.8678H94.435V43.8128H96.16V45.8678H98.17V47.2628H96.16ZM104.021 45.7328C104.651 45.7328 105.211 45.8678 105.701 46.1378C106.201 46.4078 106.591 46.8078 106.871 47.3378C107.161 47.8678 107.306 48.5078 107.306 49.2578V54.1328H105.611V49.5128C105.611 48.7728 105.426 48.2078 105.056 47.8178C104.686 47.4178 104.181 47.2178 103.541 47.2178C102.901 47.2178 102.391 47.4178 102.011 47.8178C101.641 48.2078 101.456 48.7728 101.456 49.5128V54.1328H99.7461V43.0328H101.456V46.8278C101.746 46.4778 102.111 46.2078 102.551 46.0178C103.001 45.8278 103.491 45.7328 104.021 45.7328ZM112.814 48.8978C112.814 47.8778 113.049 46.9628 113.519 46.1528C113.999 45.3428 114.644 44.7128 115.454 44.2628C116.274 43.8028 117.169 43.5728 118.139 43.5728C119.249 43.5728 120.234 43.8478 121.094 44.3978C121.964 44.9378 122.594 45.7078 122.984 46.7078H120.929C120.659 46.1578 120.284 45.7478 119.804 45.4778C119.324 45.2078 118.769 45.0728 118.139 45.0728C117.449 45.0728 116.834 45.2278 116.294 45.5378C115.754 45.8478 115.329 46.2928 115.019 46.8728C114.719 47.4528 114.569 48.1278 114.569 48.8978C114.569 49.6678 114.719 50.3428 115.019 50.9228C115.329 51.5028 115.754 51.9528 116.294 52.2728C116.834 52.5828 117.449 52.7378 118.139 52.7378C118.769 52.7378 119.324 52.6028 119.804 52.3328C120.284 52.0628 120.659 51.6528 120.929 51.1028H122.984C122.594 52.1028 121.964 52.8728 121.094 53.4128C120.234 53.9528 119.249 54.2228 118.139 54.2228C117.159 54.2228 116.264 53.9978 115.454 53.5478C114.644 53.0878 113.999 52.4528 113.519 51.6428C113.049 50.8328 112.814 49.9178 112.814 48.8978ZM124.415 49.9628C124.415 49.1328 124.585 48.3978 124.925 47.7578C125.275 47.1178 125.745 46.6228 126.335 46.2728C126.935 45.9128 127.595 45.7328 128.315 45.7328C128.965 45.7328 129.53 45.8628 130.01 46.1228C130.5 46.3728 130.89 46.6878 131.18 47.0678V45.8678H132.905V54.1328H131.18V52.9028C130.89 53.2928 130.495 53.6178 129.995 53.8778C129.495 54.1378 128.925 54.2678 128.285 54.2678C127.575 54.2678 126.925 54.0878 126.335 53.7278C125.745 53.3578 125.275 52.8478 124.925 52.1978C124.585 51.5378 124.415 50.7928 124.415 49.9628ZM131.18 49.9928C131.18 49.4228 131.06 48.9278 130.82 48.5078C130.59 48.0878 130.285 47.7678 129.905 47.5478C129.525 47.3278 129.115 47.2178 128.675 47.2178C128.235 47.2178 127.825 47.3278 127.445 47.5478C127.065 47.7578 126.755 48.0728 126.515 48.4928C126.285 48.9028 126.17 49.3928 126.17 49.9628C126.17 50.5328 126.285 51.0328 126.515 51.4628C126.755 51.8928 127.065 52.2228 127.445 52.4528C127.835 52.6728 128.245 52.7828 128.675 52.7828C129.115 52.7828 129.525 52.6728 129.905 52.4528C130.285 52.2328 130.59 51.9128 130.82 51.4928C131.06 51.0628 131.18 50.5628 131.18 49.9928ZM136.861 47.0678C137.111 46.6478 137.441 46.3228 137.851 46.0928C138.271 45.8528 138.766 45.7328 139.336 45.7328V47.5028H138.901C138.231 47.5028 137.721 47.6728 137.371 48.0128C137.031 48.3528 136.861 48.9428 136.861 49.7828V54.1328H135.151V45.8678H136.861V47.0678ZM148.483 49.7978C148.483 50.1078 148.463 50.3878 148.423 50.6378H142.108C142.158 51.2978 142.403 51.8278 142.843 52.2278C143.283 52.6278 143.823 52.8278 144.463 52.8278C145.383 52.8278 146.033 52.4428 146.413 51.6728H148.258C148.008 52.4328 147.553 53.0578 146.893 53.5478C146.243 54.0278 145.433 54.2678 144.463 54.2678C143.673 54.2678 142.963 54.0928 142.333 53.7428C141.713 53.3828 141.223 52.8828 140.863 52.2428C140.513 51.5928 140.338 50.8428 140.338 49.9928C140.338 49.1428 140.508 48.3978 140.848 47.7578C141.198 47.1078 141.683 46.6078 142.303 46.2578C142.933 45.9078 143.653 45.7328 144.463 45.7328C145.243 45.7328 145.938 45.9028 146.548 46.2428C147.158 46.5828 147.633 47.0628 147.973 47.6828C148.313 48.2928 148.483 48.9978 148.483 49.7978ZM146.698 49.2578C146.688 48.6278 146.463 48.1228 146.023 47.7428C145.583 47.3628 145.038 47.1728 144.388 47.1728C143.798 47.1728 143.293 47.3628 142.873 47.7428C142.453 48.1128 142.203 48.6178 142.123 49.2578H146.698Z" fill="#0057B7"/>
</svg>
