<svg width="22" height="24" viewBox="0 0 22 24" fill="none" xmlns="http://www.w3.org/2000/svg">
<path d="M18.239 0H3.76C1.687 0 0 1.688 0 3.761C0 4.683 0.337 5.571 0.95 6.259L8 14.191V20.501C8 20.677 8.092 20.84 8.243 20.93L13.243 23.93C13.322 23.978 13.411 24.001 13.5 24.001C13.585 24.001 13.67 23.98 13.746 23.937C13.903 23.848 14 23.681 14 23.501V14.191L21.051 6.259C21.663 5.571 22 4.683 22 3.761C22 1.688 20.312 0 18.239 0ZM20.302 5.595L13.125 13.668C13.044 13.76 12.999 13.878 12.999 14V22.617L8.999 20.217V14C8.999 13.878 8.954 13.76 8.873 13.668L1.697 5.595C1.247 5.089 1 4.438 1 3.761C1 2.239 2.238 1 3.76 1H18.239C19.761 1 21 2.238 21 3.761C21 4.438 20.752 5.089 20.302 5.595Z" fill="black"/>
</svg>
