<svg width="25" height="25" viewBox="0 0 25 25" fill="none" xmlns="http://www.w3.org/2000/svg">
<path d="M19.4891 8.55031C19.3923 8.45268 19.2771 8.37518 19.1501 8.3223C19.0232 8.26941 18.887 8.24219 18.7495 8.24219C18.612 8.24219 18.4759 8.26941 18.3489 8.3223C18.222 8.37518 18.1068 8.45268 18.0099 8.55031L13.2391 13.3211C13.1423 13.4188 13.0271 13.4963 12.9001 13.5492C12.7732 13.602 12.637 13.6293 12.4995 13.6293C12.362 13.6293 12.2259 13.602 12.0989 13.5492C11.972 13.4963 11.8568 13.4188 11.7599 13.3211L6.98911 8.55031C6.89227 8.45268 6.77706 8.37518 6.65012 8.3223C6.52319 8.26941 6.38704 8.24219 6.24952 8.24219C6.11201 8.24219 5.97586 8.26941 5.84892 8.3223C5.72199 8.37518 5.60678 8.45268 5.50994 8.55031C5.31593 8.74548 5.20703 9.00949 5.20703 9.28469C5.20703 9.55988 5.31593 9.82389 5.50994 10.0191L10.2912 14.8003C10.8771 15.3855 11.6714 15.7142 12.4995 15.7142C13.3277 15.7142 14.1219 15.3855 14.7079 14.8003L19.4891 10.0191C19.6831 9.82389 19.792 9.55988 19.792 9.28469C19.792 9.00949 19.6831 8.74548 19.4891 8.55031Z" fill="black"/>
</svg>
